<svg width="24" height="24" viewBox="0 0 24 24" fill="none" xmlns="http://www.w3.org/2000/svg">
<path d="M20.0704 17.5861C19.768 18.2849 19.41 18.928 18.9952 19.5193C18.4298 20.3254 17.9668 20.8834 17.61 21.1934C17.0569 21.702 16.4644 21.9625 15.8298 21.9773C15.3743 21.9773 14.825 21.8477 14.1855 21.5848C13.5438 21.323 12.9542 21.1934 12.4152 21.1934C11.8497 21.1934 11.2433 21.323 10.5947 21.5848C9.94508 21.8477 9.42177 21.9847 9.02166 21.9983C8.41315 22.0242 7.80664 21.7563 7.20122 21.1934C6.81482 20.8563 6.33149 20.2787 5.75251 19.4601C5.13129 18.5861 4.62057 17.5725 4.22045 16.417C3.79194 15.1688 3.57715 13.9603 3.57715 12.7902C3.57715 11.4498 3.86677 10.2939 4.44687 9.3251C4.90278 8.54696 5.5093 7.93315 6.26841 7.48256C7.02753 7.03195 7.84774 6.80232 8.73106 6.78763C9.21436 6.78763 9.84818 6.93713 10.6359 7.23095C11.4212 7.52577 11.9256 7.67526 12.1466 7.67526C12.3119 7.67526 12.8722 7.50045 13.8219 7.15195C14.72 6.82875 15.478 6.69492 16.0989 6.74764C17.7816 6.88343 19.0458 7.54674 19.8865 8.74178C18.3816 9.6536 17.6372 10.9307 17.652 12.5691C17.6656 13.8452 18.1286 14.9072 19.0384 15.7503C19.4507 16.1416 19.9112 16.4441 20.4236 16.6589C20.3124 16.9812 20.1951 17.2898 20.0704 17.5861ZM16.2114 2.40012C16.2114 3.40034 15.8458 4.33424 15.1176 5.19867C14.2385 6.22629 13.1753 6.8201 12.0225 6.72641C12.0078 6.6064 11.9993 6.48011 11.9993 6.34741C11.9993 5.38718 12.4173 4.35957 13.1596 3.51935C13.5302 3.09392 14.0014 2.74019 14.573 2.45801C15.1435 2.18004 15.683 2.02632 16.1903 2C16.2052 2.13371 16.2114 2.26743 16.2114 2.40011V2.40012Z" fill="white"/>
</svg>
