<svg width="24" height="24" viewBox="0 0 24 24" fill="none" xmlns="http://www.w3.org/2000/svg">
<path d="M14 20.0018C13.7968 20.3048 13.505 20.5564 13.154 20.7313C12.803 20.9062 12.4051 20.9982 12 20.9982C11.5949 20.9982 11.197 20.9062 10.846 20.7313C10.495 20.5564 10.2032 20.3048 10 20.0018M6.66667 8.60177C6.66667 5.50898 8.44444 3.00177 12 3.00177C15.5556 3.00177 17.3333 5.50898 17.3333 8.60177V10.3351C17.3333 11.4397 18.3269 12.3521 19.124 13.1168C19.6376 13.6096 20 14.3084 20 15.1351C20 16.166 19.2041 17.0018 18.2222 17.0018H5.77778C4.79594 17.0018 4 16.166 4 15.1351C4 14.3084 4.36239 13.6096 4.87601 13.1168C5.67308 12.3521 6.66667 11.4397 6.66667 10.3351V8.60177Z" stroke="#FCFCFC" stroke-width="2" stroke-linecap="round" stroke-linejoin="round"/>
</svg>
