<svg width="24" height="24" viewBox="0 0 24 24" fill="none" xmlns="http://www.w3.org/2000/svg">
<path d="M21 17V7C21 4.79086 19.2091 3 17 3H7C4.79086 3 3 4.79086 3 7V17C3 19.2091 4.79086 21 7 21H17C19.2091 21 21 19.2091 21 17ZM21 17L16.5675 13.3064C15.7069 12.5892 14.4252 12.7187 13.7254 13.5934L12.1262 15.5924C11.489 16.3889 10.3487 16.5659 9.5 16.0002C8.65134 15.4344 7.51098 15.6114 6.87381 16.4079L4 20.0002" stroke="white" stroke-width="1.6" stroke-linejoin="round"/>
<path d="M8.40049 8.40049L8.40039 8.40039" stroke="white" stroke-width="2.8" stroke-linecap="round" stroke-linejoin="round"/>
</svg>
