<svg width="24" height="24" viewBox="0 0 24 24" fill="none" xmlns="http://www.w3.org/2000/svg">
<path d="M21.8018 12.2295C21.8018 11.5498 21.7466 10.8664 21.629 10.1977H12.1973V14.0483H17.5984C17.3744 15.2902 16.6541 16.3887 15.5998 17.0869V19.5853H18.8219C20.7142 17.8437 21.8018 15.2718 21.8018 12.2295Z" fill="#4285F4"/>
<path d="M12.1973 22C14.8943 22 17.1686 21.1144 18.8257 19.586L15.6033 17.0875C14.7069 17.6974 13.5495 18.0429 12.201 18.0429C9.59239 18.0429 7.38051 16.2829 6.58689 13.9167H3.26172V16.4923C4.95921 19.8688 8.41664 22 12.1973 22Z" fill="#34A853"/>
<path d="M6.58331 13.9167C6.16446 12.6747 6.16446 11.33 6.58331 10.088V7.51245H3.26183C1.84359 10.3379 1.84377 13.6668 3.26202 16.4922L6.58331 13.9167Z" fill="#FBBC04"/>
<path d="M12.1975 5.9578C13.6232 5.93575 15.0009 6.47219 16.0335 7.45687L18.8883 4.60202C17.0806 2.90453 14.6813 1.97128 12.1975 2.00067C8.41682 2.00067 4.95921 4.13171 3.26172 7.51199L6.5832 10.0876C7.37315 7.71774 9.58889 5.9578 12.1975 5.9578Z" fill="#EA4335"/>
</svg>
