<svg width="24" height="24" viewBox="0 0 24 24" fill="none" xmlns="http://www.w3.org/2000/svg">
<path d="M21 17.8109V10.8663C21 9.88216 20.5726 8.95316 19.8418 8.34896L14.4558 3.89571C13.0113 2.70143 10.9887 2.70143 9.54424 3.89571L4.15818 8.34896C3.42742 8.95316 3 9.88216 3 10.8663V17.8109C3 19.5722 4.34315 21 6 21H7C8.10457 21 9 20.1046 9 19V16.7478C9 14.9865 10.3431 13.5587 12 13.5587C13.6569 13.5587 15 14.9865 15 16.7478V19C15 20.1046 15.8954 21 17 21H18C19.6569 21 21 19.5722 21 17.8109Z" stroke="white" stroke-width="2" stroke-linejoin="round"/>
</svg>
