<svg width="24" height="24" viewBox="0 0 24 24" fill="none" xmlns="http://www.w3.org/2000/svg">
<path d="M19.4879 3.04705C20.3819 2.79164 21.2084 3.61811 20.953 4.51205L16.6441 19.593C16.1824 21.209 14.0237 21.5126 13.1342 20.0866L10.1205 15.2551C9.77286 14.6977 9.30233 14.2271 8.74492 13.8795L3.91345 10.8658C2.48744 9.97627 2.79099 7.81761 4.407 7.35589L19.4879 3.04705Z" fill="white"/>
<path d="M10.1124 13.8877L13.9212 10.0788M3.91345 10.8658L8.74492 13.8795C9.30233 14.2271 9.77286 14.6977 10.1205 15.2551L13.1342 20.0866C14.0237 21.5126 16.1824 21.209 16.6441 19.593L20.953 4.51205C21.2084 3.61811 20.3819 2.79164 19.4879 3.04705L4.407 7.35589C2.79099 7.81761 2.48744 9.97627 3.91345 10.8658Z" stroke="white" stroke-width="2" stroke-linecap="round" stroke-linejoin="round"/>
</svg>
