<svg width="49" height="48" viewBox="0 0 49 48" fill="none" xmlns="http://www.w3.org/2000/svg">
<rect x="0.5" width="48" height="48" rx="24" fill="url(#paint0_radial_52_8013)"/>
<rect x="0.5" width="48" height="48" rx="24" fill="url(#paint1_radial_52_8013)"/>
<rect x="0.5" width="48" height="48" rx="24" fill="url(#paint2_radial_52_8013)"/>
<rect x="0.5" width="48" height="48" rx="24" fill="url(#paint3_radial_52_8013)"/>
<path d="M24.501 12.1487C21.28 12.1487 20.8758 12.1628 19.6107 12.2203C18.3481 12.2781 17.4862 12.4778 16.7321 12.7709C15.9521 13.0736 15.2904 13.4785 14.6312 14.1375C13.9714 14.7962 13.5662 15.4574 13.2623 16.2366C12.9683 16.9904 12.7681 17.8519 12.7113 19.1131C12.6547 20.3772 12.6399 20.7814 12.6399 24C12.6399 27.2186 12.6542 27.6213 12.7115 28.8855C12.7696 30.1471 12.9695 31.0083 13.2625 31.7619C13.5657 32.5414 13.9709 33.2026 14.6304 33.8613C15.2894 34.5205 15.9511 34.9264 16.7306 35.2291C17.4852 35.5222 18.3473 35.722 19.6097 35.7797C20.8748 35.8372 21.2788 35.8513 24.4995 35.8513C27.7208 35.8513 28.1238 35.8373 29.3889 35.7797C30.6515 35.722 31.5143 35.5222 32.2689 35.2291C33.0487 34.9264 33.7094 34.5205 34.3684 33.8613C35.0281 33.2026 35.4333 32.5414 35.7372 31.7621C36.0288 31.0083 36.2289 30.1469 36.2882 28.8857C36.3451 27.6216 36.3599 27.2186 36.3599 24C36.3599 20.7814 36.3451 20.3775 36.2882 19.1133C36.2289 17.8516 36.0288 16.9904 35.7372 16.2369C35.4333 15.4574 35.0281 14.7962 34.3684 14.1375C33.7087 13.4782 33.0489 13.0733 32.2682 12.7709C31.5121 12.4778 30.6497 12.2781 29.3871 12.2203C28.122 12.1628 27.7193 12.1487 24.4973 12.1487H24.501ZM23.437 14.2844C23.7528 14.2839 24.1052 14.2844 24.501 14.2844C27.6677 14.2844 28.043 14.2958 29.2935 14.3525C30.4498 14.4054 31.0774 14.5984 31.4955 14.7607C32.049 14.9755 32.4436 15.2322 32.8584 15.647C33.2735 16.0618 33.5305 16.4569 33.746 17.0099C33.9083 17.4272 34.1018 18.0543 34.1544 19.2099C34.2112 20.4592 34.2236 20.8345 34.2236 23.9973C34.2236 27.1601 34.2112 27.5354 34.1544 28.7847C34.1015 29.9402 33.9083 30.5674 33.746 30.9846C33.531 31.5377 33.2735 31.9315 32.8584 32.3461C32.4433 32.7609 32.0492 33.0176 31.4955 33.2324C31.0779 33.3954 30.4498 33.588 29.2935 33.6408C28.0432 33.6976 27.6677 33.7099 24.501 33.7099C21.3341 33.7099 20.9588 33.6976 19.7085 33.6408C18.5522 33.5875 17.9246 33.3944 17.5063 33.2322C16.9528 33.0174 16.5574 32.7606 16.1423 32.3458C15.7272 31.931 15.4703 31.537 15.2548 30.9836C15.0925 30.5664 14.899 29.9392 14.8464 28.7837C14.7895 27.5344 14.7782 27.1591 14.7782 23.9943C14.7782 20.8295 14.7895 20.4562 14.8464 19.2069C14.8993 18.0514 15.0925 17.4243 15.2548 17.0065C15.4698 16.4534 15.7272 16.0584 16.1423 15.6436C16.5574 15.2288 16.9528 14.972 17.5063 14.7567C17.9243 14.5938 18.5522 14.4012 19.7085 14.3481C20.8026 14.2987 21.2266 14.2839 23.4371 14.2814L23.437 14.2844ZM30.8318 16.2522C30.0461 16.2522 29.4086 16.8885 29.4086 17.6739C29.4086 18.459 30.0461 19.096 30.8318 19.096C31.6176 19.096 32.2551 18.459 32.2551 17.6739C32.2551 16.8887 31.6176 16.2517 30.8318 16.2517L30.8318 16.2522ZM24.501 17.9139C21.1374 17.9139 18.4103 20.6389 18.4103 24C18.4103 27.3611 21.1374 30.0849 24.501 30.0849C27.8646 30.0849 30.5907 27.3611 30.5907 24C30.5907 20.6389 27.8643 17.9139 24.5008 17.9139H24.501ZM24.501 20.0496C26.6843 20.0496 28.4544 21.8181 28.4544 24C28.4544 26.1816 26.6843 27.9504 24.501 27.9504C22.3175 27.9504 20.5476 26.1816 20.5476 24C20.5476 21.8181 22.3175 20.0496 24.501 20.0496Z" fill="white"/>
<defs>
<radialGradient id="paint0_radial_52_8013" cx="0" cy="0" r="1" gradientUnits="userSpaceOnUse" gradientTransform="translate(46.9501 22.4982) rotate(164.25) scale(30.6693 22.0957)">
<stop stop-color="#FF005F"/>
<stop offset="1" stop-color="#FC01D8"/>
</radialGradient>
<radialGradient id="paint1_radial_52_8013" cx="0" cy="0" r="1" gradientUnits="userSpaceOnUse" gradientTransform="translate(13.2496 51.697) rotate(-90) scale(38.3145 40.6509)">
<stop stop-color="#FFCC00"/>
<stop offset="0.1242" stop-color="#FFCC00"/>
<stop offset="0.5672" stop-color="#FE4A05"/>
<stop offset="0.6942" stop-color="#FF0F3F"/>
<stop offset="1" stop-color="#FE0657" stop-opacity="0"/>
</radialGradient>
<radialGradient id="paint2_radial_52_8013" cx="0" cy="0" r="1" gradientUnits="userSpaceOnUse" gradientTransform="translate(25.7129 47.3231) rotate(-59.8703) scale(15.8434 20.6263)">
<stop stop-color="#FFCC00"/>
<stop offset="1" stop-color="#FFCC00" stop-opacity="0"/>
</radialGradient>
<radialGradient id="paint3_radial_52_8013" cx="0" cy="0" r="1" gradientUnits="userSpaceOnUse" gradientTransform="translate(7.01257 1.95455) rotate(164.274) scale(30.3291 10.3331)">
<stop stop-color="#780CFF"/>
<stop offset="1" stop-color="#820BFF" stop-opacity="0"/>
</radialGradient>
</defs>
</svg>
