<svg width="16" height="17" viewBox="0 0 16 17" fill="none" xmlns="http://www.w3.org/2000/svg">
<path d="M11.2735 6.2794L4.12251 13.4306C3.98162 13.5714 3.80479 13.6417 3.59201 13.6417C3.37923 13.6417 3.20245 13.5714 3.06168 13.4306C2.92079 13.2897 2.85034 13.1128 2.85034 12.9001C2.85034 12.6873 2.92079 12.5105 3.06168 12.3696L10.2127 5.21857H6.69851C6.48573 5.21857 6.30618 5.14535 6.15984 4.9989C6.0134 4.85257 5.94018 4.67302 5.94018 4.46024C5.94018 4.24746 6.0134 4.06785 6.15984 3.92141C6.30618 3.77507 6.48573 3.7019 6.69851 3.7019H12.0318C12.2447 3.7019 12.4243 3.77507 12.5707 3.92141C12.717 4.06785 12.7902 4.24746 12.7902 4.46024V9.79357C12.7902 10.0063 12.717 10.1859 12.5707 10.3322C12.4243 10.4787 12.2447 10.5519 12.0318 10.5519C11.8191 10.5519 11.6395 10.4787 11.4932 10.3322C11.3467 10.1859 11.2735 10.0063 11.2735 9.79357V6.2794Z" fill="black"/>
</svg>
