<svg width="24" height="24" viewBox="0 0 24 24" fill="none" xmlns="http://www.w3.org/2000/svg">
<path d="M19.124 13.1168L18.4317 13.8384L19.124 13.1168ZM4.87601 13.1168L5.56831 13.8384L4.87601 13.1168ZM14.8305 20.5587C15.1381 20.1 15.0157 19.4788 14.557 19.1712C14.0983 18.8636 13.4771 18.9861 13.1695 19.4448L14.8305 20.5587ZM10.8305 19.4448C10.5229 18.9861 9.90172 18.8636 9.44303 19.1712C8.98434 19.4788 8.86186 20.1 9.16947 20.5587L10.8305 19.4448ZM7.66667 8.60177C7.66667 7.23841 8.05825 6.09206 8.75178 5.30138C9.42875 4.52959 10.4749 4.00177 12 4.00177V2.00177C9.9695 2.00177 8.34903 2.72755 7.24822 3.98256C6.16397 5.21869 5.66667 6.87234 5.66667 8.60177H7.66667ZM7.66667 10.3351V8.60177H5.66667V10.3351H7.66667ZM5.77778 16.0018C5.39364 16.0018 5 15.6603 5 15.1351H3C3 16.6718 4.19824 18.0018 5.77778 18.0018V16.0018ZM18.2222 16.0018H5.77778V18.0018H18.2222V16.0018ZM19 15.1351C19 15.6603 18.6064 16.0018 18.2222 16.0018V18.0018C19.8018 18.0018 21 16.6718 21 15.1351H19ZM16.3333 8.60177V10.3351H18.3333V8.60177H16.3333ZM12 4.00177C13.5251 4.00177 14.5713 4.52959 15.2482 5.30139C15.9417 6.09206 16.3333 7.23841 16.3333 8.60177H18.3333C18.3333 6.87234 17.836 5.21869 16.7518 3.98256C15.651 2.72755 14.0305 2.00177 12 2.00177V4.00177ZM5 15.1351C5 14.6154 5.22481 14.168 5.56831 13.8384L4.18372 12.3952C3.49997 13.0512 3 14.0014 3 15.1351H5ZM18.4317 13.8384C18.7752 14.168 19 14.6154 19 15.1351H21C21 14.0014 20.5 13.0512 19.8163 12.3952L18.4317 13.8384ZM16.3333 10.3351C16.3333 11.1956 16.7206 11.9106 17.1312 12.4553C17.5382 12.9953 18.0534 13.4755 18.4317 13.8384L19.8163 12.3952C19.3975 11.9934 19.0174 11.635 18.7283 11.2515C18.4428 10.8727 18.3333 10.5791 18.3333 10.3351H16.3333ZM5.66667 10.3351C5.66667 10.5791 5.55716 10.8727 5.27166 11.2515C4.9826 11.635 4.60251 11.9934 4.18372 12.3952L5.56831 13.8384C5.94658 13.4755 6.46182 12.9953 6.86882 12.4553C7.27938 11.9106 7.66667 11.1956 7.66667 10.3351H5.66667ZM13.1695 19.4448C13.0701 19.593 12.9157 19.7328 12.7081 19.8362L13.6 21.6264C14.0944 21.38 14.5234 21.0167 14.8305 20.5587L13.1695 19.4448ZM12.7081 19.8362C12.5002 19.9398 12.2556 19.9982 12 19.9982V21.9982C12.5546 21.9982 13.1058 21.8726 13.6 21.6264L12.7081 19.8362ZM12 19.9982C11.7444 19.9982 11.4998 19.9398 11.2919 19.8362L10.4 21.6264C10.8942 21.8726 11.4454 21.9982 12 21.9982V19.9982ZM11.2919 19.8362C11.0843 19.7328 10.9299 19.593 10.8305 19.4448L9.16947 20.5587C9.47658 21.0167 9.90564 21.38 10.4 21.6264L11.2919 19.8362Z" fill="white"/>
</svg>
