<svg width="24" height="24" viewBox="0 0 24 24" fill="none" xmlns="http://www.w3.org/2000/svg">
<path d="M12.0003 6.99983C11.5401 6.99983 11.167 6.62673 11.167 6.16649C11.167 5.70626 11.5401 5.33316 12.0003 5.33316C12.4606 5.33316 12.8337 5.70626 12.8337 6.16649C12.8337 6.62673 12.4606 6.99983 12.0003 6.99983Z" fill="white"/>
<path d="M11.167 12.0005C11.167 12.4607 11.5401 12.8338 12.0003 12.8338C12.4606 12.8338 12.8337 12.4607 12.8337 12.0005C12.8337 11.5402 12.4606 11.1671 12.0003 11.1671C11.5401 11.1671 11.167 11.5402 11.167 12.0005Z" fill="white"/>
<path d="M11.167 17.8335C11.167 18.2937 11.5401 18.6668 12.0003 18.6668C12.4606 18.6668 12.8337 18.2937 12.8337 17.8335C12.8337 17.3732 12.4606 17.0002 12.0003 17.0002C11.5401 17.0002 11.167 17.3732 11.167 17.8335Z" fill="white"/>
<path d="M12.0003 6.99983C11.5401 6.99983 11.167 6.62673 11.167 6.16649C11.167 5.70626 11.5401 5.33316 12.0003 5.33316C12.4606 5.33316 12.8337 5.70626 12.8337 6.16649C12.8337 6.62673 12.4606 6.99983 12.0003 6.99983Z" stroke="white" stroke-width="2" stroke-linecap="round" stroke-linejoin="round"/>
<path d="M11.167 12.0005C11.167 12.4607 11.5401 12.8338 12.0003 12.8338C12.4606 12.8338 12.8337 12.4607 12.8337 12.0005C12.8337 11.5402 12.4606 11.1671 12.0003 11.1671C11.5401 11.1671 11.167 11.5402 11.167 12.0005Z" stroke="white" stroke-width="2" stroke-linecap="round" stroke-linejoin="round"/>
<path d="M11.167 17.8335C11.167 18.2937 11.5401 18.6668 12.0003 18.6668C12.4606 18.6668 12.8337 18.2937 12.8337 17.8335C12.8337 17.3732 12.4606 17.0002 12.0003 17.0002C11.5401 17.0002 11.167 17.3732 11.167 17.8335Z" stroke="white" stroke-width="2" stroke-linecap="round" stroke-linejoin="round"/>
</svg>
