<svg width="24" height="24" viewBox="0 0 24 24" fill="none" xmlns="http://www.w3.org/2000/svg">
<path d="M17.0026 11.1787C17.4695 11.4482 17.7031 11.5831 17.7814 11.759C17.8498 11.9126 17.8498 12.0879 17.7814 12.2414C17.7031 12.4175 17.4695 12.5523 17.0026 12.8219L9.62032 17.084C9.15333 17.3536 8.9198 17.4885 8.72821 17.4683C8.56107 17.4507 8.40925 17.3631 8.31049 17.2271C8.19727 17.0713 8.19727 16.8016 8.19727 16.2624V7.73813C8.19727 7.19889 8.19727 6.92927 8.31049 6.77342C8.40925 6.63742 8.56107 6.5498 8.72821 6.53224C8.9198 6.5121 9.15333 6.64691 9.62032 6.91654L17.0026 11.1787Z" fill="white" stroke="white" stroke-width="1.4" stroke-linecap="round" stroke-linejoin="round"/>
</svg>
