<svg width="24" height="24" viewBox="0 0 24 24" fill="none" xmlns="http://www.w3.org/2000/svg">
<path d="M10.3499 13.9065H6.56236C6.26279 13.9065 6.04881 13.7781 5.92043 13.5214C5.79204 13.2647 5.81344 13.0185 5.98463 12.7831L12.5003 3.31456C12.6073 3.16476 12.7357 3.06848 12.8854 3.02568C13.0353 2.98288 13.1958 2.99358 13.367 3.05777C13.5381 3.12197 13.6611 3.2236 13.736 3.36269C13.8109 3.50178 13.8376 3.65692 13.8162 3.82811L12.9497 10.8252H17.4433C17.7429 10.8252 17.9569 10.9644 18.0852 11.2425C18.2136 11.5207 18.1815 11.7774 17.9889 12.0128L10.7029 20.7432C10.5959 20.8716 10.4675 20.9519 10.3177 20.9839C10.168 21.0161 10.0181 21 9.86837 20.9358C9.71859 20.8716 9.60623 20.7752 9.53134 20.6469C9.45645 20.5184 9.42971 20.3686 9.45111 20.1975L10.3499 13.9065Z" fill="white" stroke="white" stroke-width="0.3" stroke-linejoin="round"/>
</svg>
