<svg width="24" height="24" viewBox="0 0 24 24" fill="none" xmlns="http://www.w3.org/2000/svg">
<path fill-rule="evenodd" clip-rule="evenodd" d="M7.5 6.5C7.5 4.01472 9.51472 2 12 2C14.4853 2 16.5 4.01472 16.5 6.5V11C16.5 13.4853 14.4853 15.5 12 15.5C9.51472 15.5 7.5 13.4853 7.5 11V6.5ZM12 4C10.6193 4 9.5 5.11929 9.5 6.5V11C9.5 12.3807 10.6193 13.5 12 13.5C13.3807 13.5 14.5 12.3807 14.5 11V6.5C14.5 5.11929 13.3807 4 12 4Z" fill="white"/>
<path d="M13 18.9381C16.9463 18.446 20 15.0796 20 11C20 10.4477 19.5523 10 19 10C18.4477 10 18 10.4477 18 11C18 14.3137 15.3137 17 12 17C8.68629 17 6 14.3137 6 11C6 10.4477 5.55228 10 5 10C4.44772 10 4 10.4477 4 11C4 15.0796 7.05369 18.446 11 18.9381V21C11 21.5523 11.4477 22 12 22C12.5523 22 13 21.5523 13 21V18.9381Z" fill="white"/>
</svg>
