<svg width="24" height="24" viewBox="0 0 24 24" fill="none" xmlns="http://www.w3.org/2000/svg">
<path d="M16.8858 12.0927C16.9657 12.2202 17.0499 12.3405 17.1351 12.4535C17.5106 12.9517 17.9781 13.399 18.3453 13.7502L18.4356 13.8366C18.7791 14.1662 19.0039 14.6136 19.0039 15.1333C19.0039 15.6585 18.6103 16 18.2261 16H5.78168C5.39755 16 5.00391 15.6585 5.00391 15.1333C5.00391 14.6136 5.22872 14.1662 5.57221 13.8366L5.66248 13.7502C6.02967 13.399 6.49726 12.9517 6.87273 12.4535C7.28328 11.9088 7.67057 11.1939 7.67057 10.3333V8.6C7.67057 7.23664 8.06216 6.09029 8.75569 5.29961C9.38165 4.58597 10.3233 4.08092 11.6673 4.00887C11.7616 3.30405 11.9551 2.63063 12.2334 2.00313C12.1575 2.00105 12.081 2 12.0039 2C9.97341 2 8.35294 2.72578 7.25213 3.98079C6.16788 5.21692 5.67057 6.87057 5.67057 8.6V10.3333C5.67057 10.5774 5.56107 10.8709 5.27556 11.2498C5.00189 11.6129 4.6466 11.9534 4.25413 12.3296L4.18762 12.3934C3.50387 13.0494 3.00391 13.9996 3.00391 15.1333C3.00391 16.67 4.20214 18 5.78168 18H18.2261C19.8057 18 21.0039 16.67 21.0039 15.1333C21.0039 13.9996 20.5039 13.0494 19.8202 12.3934L19.784 12.3587C19.5269 12.3858 19.2658 12.3996 19.0016 12.3996C18.2663 12.3996 17.5562 12.2924 16.8858 12.0927Z" fill="white" fill-opacity="0.38"/>
<path d="M9.44694 19.1695C9.90563 18.8619 10.5268 18.9843 10.8344 19.443C10.9338 19.5912 11.0882 19.731 11.2958 19.8345C11.5037 19.938 11.7483 19.9965 12.0039 19.9965C12.2595 19.9965 12.5041 19.938 12.712 19.8345C12.9196 19.731 13.074 19.5912 13.1734 19.443C13.481 18.9843 14.1022 18.8619 14.5609 19.1695C15.0196 19.4771 15.142 20.0983 14.8344 20.557C14.5273 21.0149 14.0983 21.3783 13.6039 21.6246C13.1097 21.8708 12.5585 21.9965 12.0039 21.9965C11.4493 21.9965 10.8981 21.8708 10.4039 21.6246C9.90955 21.3783 9.48049 21.0149 9.17337 20.557C8.86577 20.0983 8.98825 19.4771 9.44694 19.1695Z" fill="white" fill-opacity="0.38"/>
<rect x="14" width="10" height="10" rx="5" fill="#FCFCFC"/>
</svg>
