<svg width="24" height="24" viewBox="0 0 24 24" fill="none" xmlns="http://www.w3.org/2000/svg">
<path d="M17 21H7C4.79086 21 3 19.2091 3 17V9.42097C3 7.99815 3.96835 6.75791 5.34869 6.41283L6.15392 6.21152C6.68089 6.07978 7.10402 5.68794 7.27579 5.17264C7.70828 3.87516 8.9225 3 10.2902 3H13.7098C15.0775 3 16.2917 3.87516 16.7242 5.17264C16.896 5.68794 17.3191 6.07978 17.8461 6.21152L18.6513 6.41283C20.0317 6.75791 21 7.99815 21 9.42097V17C21 19.2091 19.2091 21 17 21Z" stroke="white" stroke-width="2" stroke-linejoin="round"/>
<path d="M15.5 13C15.5 14.933 13.933 16.5 12 16.5C10.067 16.5 8.5 14.933 8.5 13C8.5 11.067 10.067 9.5 12 9.5C13.933 9.5 15.5 11.067 15.5 13Z" stroke="white" stroke-width="2" stroke-linejoin="round"/>
</svg>
