<svg width="24" height="24" viewBox="0 0 24 24" fill="none" xmlns="http://www.w3.org/2000/svg">
<path d="M9.84479 3.07671C10.2321 3.07671 10.5939 2.88312 10.8087 2.56082C11.3754 1.71077 12.6246 1.71077 13.1913 2.56082C13.4061 2.88312 13.7679 3.07671 14.1552 3.07671L19 3.07671C19.5523 3.07671 20 3.52443 20 4.07671C20 4.629 19.5523 5.07671 19 5.07671H5C4.44772 5.07671 4 4.629 4 4.07671C4 3.52443 4.44772 3.07671 5 3.07671L9.84479 3.07671Z" fill="#FC0330"/>
<path d="M5.9233 7.07966C6.47396 7.0373 6.9547 7.44936 6.99705 8.00002L7.78398 18.2301C7.86414 19.2721 8.73302 20.0767 9.77809 20.0767H14.2219C15.267 20.0767 16.1359 19.2721 16.216 18.2301L17.0029 8.00002C17.0453 7.44936 17.526 7.0373 18.0767 7.07966C18.6274 7.12202 19.0394 7.60275 18.9971 8.15341L18.2101 18.3835C18.0498 20.4675 16.3121 22.0767 14.2219 22.0767H9.77809C7.68795 22.0767 5.95018 20.4675 5.78988 18.3835L5.00295 8.15341C4.96059 7.60275 5.37265 7.12202 5.9233 7.07966Z" fill="#FC0330"/>
</svg>
