<svg width="24" height="24" viewBox="0 0 24 24" fill="none" xmlns="http://www.w3.org/2000/svg">
<path d="M17.5057 4.67694C17.0237 4.67694 16.5615 4.86839 16.2207 5.20918L14.9242 6.50568L17.4941 9.07557L18.7906 7.77908C18.9594 7.61034 19.0932 7.41001 19.1846 7.18954C19.2759 6.96907 19.3229 6.73277 19.3229 6.49413C19.3229 6.25549 19.2759 6.01919 19.1846 5.79872C19.0932 5.57825 18.9594 5.37793 18.7906 5.20918C18.6219 5.04044 18.4216 4.90659 18.2011 4.81527C17.9806 4.72394 17.7443 4.67694 17.5057 4.67694Z" fill="white"/>
<path d="M15.4718 11.0979L12.9019 8.528L6.23099 15.1989C5.76108 15.6689 5.42771 16.2576 5.26653 16.9024L4.67845 19.2547C4.66838 19.295 4.70487 19.3314 4.74515 19.3214L7.09746 18.7333C7.74218 18.5721 8.33097 18.2387 8.80089 17.7688L15.4718 11.0979Z" fill="white"/>
<path d="M17.5057 4.67694C17.0237 4.67694 16.5615 4.86839 16.2207 5.20918L14.9242 6.50568L17.4941 9.07557L18.7906 7.77908C18.9594 7.61034 19.0932 7.41001 19.1846 7.18954C19.2759 6.96907 19.3229 6.73277 19.3229 6.49413C19.3229 6.25549 19.2759 6.01919 19.1846 5.79872C19.0932 5.57825 18.9594 5.37793 18.7906 5.20918C18.6219 5.04044 18.4216 4.90659 18.2011 4.81527C17.9806 4.72394 17.7443 4.67694 17.5057 4.67694Z" stroke="white" stroke-linecap="round" stroke-linejoin="round"/>
<path d="M15.4718 11.0979L12.9019 8.528L6.23099 15.1989C5.76108 15.6689 5.42771 16.2576 5.26653 16.9024L4.67845 19.2547C4.66838 19.295 4.70487 19.3314 4.74515 19.3214L7.09746 18.7333C7.74218 18.5721 8.33097 18.2387 8.80089 17.7688L15.4718 11.0979Z" stroke="white" stroke-linecap="round" stroke-linejoin="round"/>
</svg>
