<svg width="24" height="24" viewBox="0 0 24 24" fill="none" xmlns="http://www.w3.org/2000/svg">
<path d="M11.2862 5.68644C11.6101 5.14826 12.3903 5.14826 12.7142 5.68644L14.2868 8.29965C14.4032 8.49299 14.593 8.63088 14.8128 8.6818L17.7841 9.36995C18.396 9.51167 18.6371 10.2537 18.2254 10.7281L16.226 13.0313C16.0781 13.2017 16.0056 13.4248 16.0251 13.6496L16.2888 16.6881C16.3431 17.3139 15.7119 17.7725 15.1336 17.5275L12.3252 16.3377C12.1175 16.2497 11.8829 16.2497 11.6751 16.3377L8.8668 17.5275C8.28843 17.7725 7.6572 17.3139 7.71151 16.6881L7.97521 13.6496C7.99472 13.4248 7.92223 13.2017 7.77431 13.0313L5.77498 10.7281C5.36322 10.2537 5.60433 9.51167 6.21626 9.36995L9.18754 8.6818C9.40737 8.63088 9.59716 8.49299 9.71352 8.29965L11.2862 5.68644Z" fill="#FCFCFC" stroke="#FCFCFC" stroke-width="1.8" stroke-linejoin="bevel"/>
</svg>
