<svg width="49" height="48" viewBox="0 0 49 48" fill="none" xmlns="http://www.w3.org/2000/svg">
<rect x="0.900146" width="48" height="48" rx="24" fill="url(#paint0_linear_52_8009)"/>
<path d="M24.9001 13.4099C21.7635 13.4099 18.7555 14.4478 16.5376 16.2951C14.3197 18.1424 13.0738 20.6479 13.0737 23.2605C13.0766 24.9598 13.6072 26.6296 14.6139 28.1076C15.6207 29.5856 17.0693 30.8215 18.8191 31.6953C18.3531 32.7386 17.6541 33.717 16.7512 34.5899C18.5022 34.2825 20.1459 33.6368 21.5544 32.703C22.6404 32.9718 23.7671 33.1092 24.9001 33.111C28.0366 33.111 31.0447 32.0732 33.2626 30.2258C35.4804 28.3785 36.7264 25.873 36.7264 23.2605C36.7264 20.6479 35.4804 18.1424 33.2626 16.2951C31.0447 14.4478 28.0366 13.4099 24.9001 13.4099Z" fill="white"/>
<defs>
<linearGradient id="paint0_linear_52_8009" x1="25.2811" y1="44.8137" x2="25.2811" y2="5.95702" gradientUnits="userSpaceOnUse">
<stop stop-color="#0CBD2A"/>
<stop offset="1" stop-color="#5BF675"/>
</linearGradient>
</defs>
</svg>
