<svg width="24" height="24" viewBox="0 0 24 24" fill="none" xmlns="http://www.w3.org/2000/svg">
<path d="M12 2.15C12.1333 2.15 12.2542 2.15833 12.3625 2.175C12.4708 2.19167 12.5833 2.225 12.7 2.275L18.7 4.525C19.0833 4.675 19.3958 4.91667 19.6375 5.25C19.8792 5.58333 20 5.95833 20 6.375V9.5C20 9.78333 19.9042 10.0208 19.7125 10.2125C19.5208 10.4042 19.2833 10.5 19 10.5C18.7167 10.5 18.4792 10.4042 18.2875 10.2125C18.0958 10.0208 18 9.78333 18 9.5V6.4L12 4.15L6 6.4V11.1C6 11.9333 6.12083 12.7667 6.3625 13.6C6.60417 14.4333 6.9375 15.225 7.3625 15.975C7.7875 16.725 8.30417 17.4 8.9125 18C9.52083 18.6 10.1833 19.0917 10.9 19.475C11.15 19.6083 11.3292 19.8 11.4375 20.05C11.5458 20.3 11.55 20.55 11.45 20.8C11.3333 21.0667 11.1458 21.25 10.8875 21.35C10.6292 21.45 10.375 21.4333 10.125 21.3C8.24167 20.3667 6.75 18.9583 5.65 17.075C4.55 15.1917 4 13.2 4 11.1V6.375C4 5.95833 4.12083 5.58333 4.3625 5.25C4.60417 4.91667 4.91667 4.675 5.3 4.525L11.3 2.275C11.4167 2.225 11.5333 2.19167 11.65 2.175C11.7667 2.15833 11.8833 2.15 12 2.15ZM17 22C15.6167 22 14.4375 21.5125 13.4625 20.5375C12.4875 19.5625 12 18.3833 12 17C12 15.6167 12.4875 14.4375 13.4625 13.4625C14.4375 12.4875 15.6167 12 17 12C18.3833 12 19.5625 12.4875 20.5375 13.4625C21.5125 14.4375 22 15.6167 22 17C22 18.3833 21.5125 19.5625 20.5375 20.5375C19.5625 21.5125 18.3833 22 17 22ZM17 17C17.4167 17 17.7708 16.8542 18.0625 16.5625C18.3542 16.2708 18.5 15.9167 18.5 15.5C18.5 15.0833 18.3542 14.7292 18.0625 14.4375C17.7708 14.1458 17.4167 14 17 14C16.5833 14 16.2292 14.1458 15.9375 14.4375C15.6458 14.7292 15.5 15.0833 15.5 15.5C15.5 15.9167 15.6458 16.2708 15.9375 16.5625C16.2292 16.8542 16.5833 17 17 17ZM17 20C17.4167 20 17.8083 19.9208 18.175 19.7625C18.5417 19.6042 18.8667 19.375 19.15 19.075C19.2333 18.975 19.2667 18.8625 19.25 18.7375C19.2333 18.6125 19.1583 18.5167 19.025 18.45C18.7083 18.3 18.3792 18.1875 18.0375 18.1125C17.6958 18.0375 17.35 18 17 18C16.65 18 16.3042 18.0375 15.9625 18.1125C15.6208 18.1875 15.2917 18.3 14.975 18.45C14.8417 18.5167 14.7667 18.6125 14.75 18.7375C14.7333 18.8625 14.7667 18.975 14.85 19.075C15.1333 19.375 15.4583 19.6042 15.825 19.7625C16.1917 19.9208 16.5833 20 17 20Z" fill="black"/>
</svg>
