<svg width="49" height="48" viewBox="0 0 49 48" fill="none" xmlns="http://www.w3.org/2000/svg">
<rect x="0.699951" width="48" height="48" rx="24" fill="white"/>
<path d="M30.2 22.5C31.0284 22.5 31.7 23.1716 31.7 24C31.7 24.8284 31.0284 25.5 30.2 25.5C29.3715 25.5 28.7 24.8284 28.7 24C28.7 23.1716 29.3715 22.5 30.2 22.5Z" fill="black"/>
<path d="M24.7 22.5C25.5284 22.5 26.2 23.1716 26.2 24C26.2 24.8284 25.5284 25.5 24.7 25.5C23.8716 25.5 23.2 24.8284 23.2 24C23.2 23.1716 23.8716 22.5 24.7 22.5Z" fill="black"/>
<path d="M19.2 22.5C20.0284 22.5 20.7 23.1716 20.7 24C20.7 24.8284 20.0284 25.5 19.2 25.5C18.3716 25.5 17.7 24.8284 17.7 24C17.7 23.1716 18.3716 22.5 19.2 22.5Z" fill="black"/>
</svg>
