<svg width="24" height="24" viewBox="0 0 24 24" fill="none" xmlns="http://www.w3.org/2000/svg">
<path d="M9.02108 8.49986C9.84943 8.48827 10.5115 7.80737 10.5 6.97902C10.4884 6.15068 9.80747 5.48856 8.97912 5.50015C8.15078 5.51174 7.48856 6.19264 7.50015 7.02098C7.51174 7.84933 8.19274 8.51144 9.02108 8.49986Z" fill="white"/>
<path d="M9.02108 13.4999C9.84943 13.4883 10.5115 12.8074 10.5 11.979C10.4884 11.1507 9.80747 10.4886 8.97912 10.5002C8.15078 10.5117 7.48856 11.1926 7.50015 12.021C7.51174 12.8493 8.19274 13.5114 9.02108 13.4999Z" fill="white"/>
<path d="M10.5 16.979C10.5115 17.8074 9.84943 18.4883 9.02108 18.4999C8.19274 18.5114 7.51174 17.8493 7.50015 17.021C7.48856 16.1926 8.15068 15.5117 8.97902 15.5002C9.80737 15.4886 10.4884 16.1507 10.5 16.979Z" fill="white"/>
<path d="M15.0211 8.49986C15.8494 8.48827 16.5115 7.80737 16.5 6.97902C16.4884 6.15068 15.8075 5.48856 14.9791 5.50015C14.1508 5.51174 13.4886 6.19264 13.5001 7.02098C13.5117 7.84933 14.1927 8.51144 15.0211 8.49986Z" fill="white"/>
<path d="M16.5 11.979C16.5115 12.8074 15.8494 13.4883 15.0211 13.4999C14.1927 13.5114 13.5117 12.8493 13.5001 12.021C13.4886 11.1926 14.1507 10.5117 14.979 10.5002C15.8074 10.4886 16.4884 11.1507 16.5 11.979Z" fill="white"/>
<path d="M15.0211 18.4999C15.8494 18.4883 16.5115 17.8074 16.5 16.979C16.4884 16.1507 15.8075 15.4886 14.9791 15.5002C14.1508 15.5117 13.4886 16.1926 13.5001 17.021C13.5117 17.8493 14.1927 18.5114 15.0211 18.4999Z" fill="white"/>
</svg>
