<svg width="24" height="24" viewBox="0 0 24 24" fill="none" xmlns="http://www.w3.org/2000/svg">
<path d="M11.1668 12C11.1668 12.4603 11.5399 12.8334 12.0002 12.8334C12.4604 12.8334 12.8335 12.4603 12.8335 12C12.8335 11.5398 12.4604 11.1667 12.0002 11.1667C11.5399 11.1667 11.1668 11.5398 11.1668 12Z" fill="#FCFCFC" stroke="#FCFCFC" stroke-width="2" stroke-linecap="round" stroke-linejoin="round"/>
<path d="M11.1668 17.8333C11.1668 18.2936 11.5399 18.6667 12.0002 18.6667C12.4604 18.6667 12.8335 18.2936 12.8335 17.8333C12.8335 17.3731 12.4604 17 12.0002 17C11.5399 17 11.1668 17.3731 11.1668 17.8333Z" fill="#FCFCFC" stroke="#FCFCFC" stroke-width="2" stroke-linecap="round" stroke-linejoin="round"/>
<path d="M11.1668 6.16665C11.1668 6.62688 11.5399 6.99998 12.0002 6.99998C12.4604 6.99998 12.8335 6.62688 12.8335 6.16665C12.8335 5.70641 12.4604 5.33331 12.0002 5.33331C11.5399 5.33331 11.1668 5.70641 11.1668 6.16665Z" fill="#FCFCFC" stroke="#FCFCFC" stroke-width="2" stroke-linecap="round" stroke-linejoin="round"/>
</svg>
