<svg width="97" height="96" viewBox="0 0 97 96" fill="none" xmlns="http://www.w3.org/2000/svg">
<path d="M60.0744 67.3791C58.5517 67.3791 57.2481 66.837 56.1638 65.7526C55.0794 64.6682 54.5373 63.3647 54.5373 61.842V34.1563C54.5373 32.6336 55.0794 31.33 56.1638 30.2457C57.2481 29.1613 58.5517 28.6191 60.0744 28.6191C61.5971 28.6191 62.9006 29.1613 63.985 30.2457C65.0694 31.33 65.6115 32.6336 65.6115 34.1563V61.842C65.6115 63.3647 65.0694 64.6682 63.985 65.7526C62.9006 66.837 61.5971 67.3791 60.0744 67.3791ZM37.9258 67.3791C36.4031 67.3791 35.0996 66.837 34.0152 65.7526C32.9309 64.6682 32.3887 63.3647 32.3887 61.842V34.1563C32.3887 32.6336 32.9309 31.33 34.0152 30.2457C35.0996 29.1613 36.4031 28.6191 37.9258 28.6191C39.4485 28.6191 40.7521 29.1613 41.8364 30.2457C42.9208 31.33 43.463 32.6336 43.463 34.1563V61.842C43.463 63.3647 42.9208 64.6682 41.8364 65.7526C40.7521 66.837 39.4485 67.3791 37.9258 67.3791Z" fill="white"/>
</svg>
