<svg width="112" height="112" viewBox="0 0 112 112" fill="none" xmlns="http://www.w3.org/2000/svg">
<path d="M56.0026 51.3333C66.3119 51.3333 74.6692 42.976 74.6692 32.6666C74.6692 22.3574 66.3119 14 56.0026 14C45.6933 14 37.3359 22.3574 37.3359 32.6666C37.3359 42.976 45.6933 51.3333 56.0026 51.3333Z" fill="white"/>
<path d="M42.0006 65.3331H70.0006C82.8872 65.3331 94.4302 77.2324 85.9489 86.9347C80.1814 93.5328 70.6435 97.9998 56.0006 97.9998C41.3575 97.9998 31.8197 93.5328 26.0521 86.9347C17.571 77.2324 29.1138 65.3331 42.0006 65.3331Z" fill="white"/>
<path d="M56.0026 51.3333C66.3119 51.3333 74.6692 42.976 74.6692 32.6666C74.6692 22.3574 66.3119 14 56.0026 14C45.6933 14 37.3359 22.3574 37.3359 32.6666C37.3359 42.976 45.6933 51.3333 56.0026 51.3333Z" stroke="white" stroke-width="4" stroke-linejoin="round"/>
<path d="M42.0006 65.3331H70.0006C82.8872 65.3331 94.4302 77.2324 85.9489 86.9347C80.1814 93.5328 70.6435 97.9998 56.0006 97.9998C41.3575 97.9998 31.8197 93.5328 26.0521 86.9347C17.571 77.2324 29.1138 65.3331 42.0006 65.3331Z" stroke="white" stroke-width="4" stroke-linejoin="round"/>
</svg>
