<svg width="24" height="24" viewBox="0 0 24 24" fill="none" xmlns="http://www.w3.org/2000/svg">
<path d="M20.5935 10.8455C21.1355 11.5248 21.1355 12.4752 20.5935 13.1545C19.1031 15.0224 15.8158 18.5 12 18.5C8.18424 18.5 4.89693 15.0223 3.40652 13.1545C2.86449 12.4752 2.86449 11.5248 3.40652 10.8455C4.89693 8.97765 8.18424 5.5 12 5.5C15.8158 5.5 19.1031 8.97765 20.5935 10.8455Z" stroke="white" stroke-width="1.8" stroke-linejoin="round"/>
<path d="M15 12C15 13.6569 13.6569 15 12 15C10.3431 15 9 13.6569 9 12C9 10.3431 10.3431 9 12 9C13.6569 9 15 10.3431 15 12Z" stroke="white" stroke-width="1.8" stroke-linejoin="round"/>
</svg>
