<svg width="24" height="24" viewBox="0 0 24 24" fill="none" xmlns="http://www.w3.org/2000/svg">
<path d="M16.6158 4.58063L15.9087 3.87352V3.87352L16.6158 4.58063ZM18.0176 4V3V4ZM20 5.98239H19H20ZM19.4194 7.38415L18.7123 6.67704L19.4194 7.38415ZM4.66579 17.3368L5.63594 17.5794L4.66579 17.3368ZM5.71794 15.4785L6.42504 16.1856L5.71794 15.4785ZM8.52146 18.2821L9.22857 18.9892L8.52146 18.2821ZM6.66317 19.3342L6.90571 20.3043L6.66317 19.3342ZM13 19C12.4477 19 12 19.4477 12 20C12 20.5523 12.4477 21 13 21V19ZM20 21C20.5523 21 21 20.5523 21 20C21 19.4477 20.5523 19 20 19V21ZM4.08085 19.9798L4.32338 20.9499L4.08085 19.9798ZM4.02021 19.9192L4.99035 20.1617L4.02021 19.9192ZM17.323 5.28774C17.5072 5.1035 17.7571 5 18.0176 5V3C17.2266 3 16.468 3.31421 15.9087 3.87352L17.323 5.28774ZM18.0176 5C18.1466 5 18.2744 5.02541 18.3936 5.07478L19.1589 3.22702C18.7971 3.07714 18.4093 3 18.0176 3V5ZM18.3936 5.07478C18.5127 5.12415 18.621 5.19651 18.7123 5.28774L20.1265 3.87352C19.8495 3.59658 19.5208 3.3769 19.1589 3.22702L18.3936 5.07478ZM18.7123 5.28774C18.8035 5.37896 18.8759 5.48726 18.9252 5.60645L20.773 4.84108C20.6231 4.47924 20.4034 4.15046 20.1265 3.87352L18.7123 5.28774ZM18.9252 5.60645C18.9746 5.72563 19 5.85338 19 5.98239H21C21 5.59074 20.9229 5.20292 20.773 4.84108L18.9252 5.60645ZM19 5.98239C19 6.1114 18.9746 6.23915 18.9252 6.35833L20.773 7.1237C20.9229 6.76186 21 6.37404 21 5.98239H19ZM18.9252 6.35833C18.8759 6.47752 18.8035 6.58582 18.7123 6.67704L20.1265 8.09126C20.4034 7.81432 20.6231 7.48554 20.773 7.1237L18.9252 6.35833ZM18.7123 6.67704L7.81435 17.575L9.22857 18.9892L20.1265 8.09126L18.7123 6.67704ZM6.42064 18.3641L3.83831 19.0096L4.32338 20.9499L6.90571 20.3043L6.42064 18.3641ZM4.99035 20.1617L5.63594 17.5794L3.69565 17.0943L3.05007 19.6766L4.99035 20.1617ZM6.42504 16.1856L17.323 5.28774L15.9087 3.87352L5.01083 14.7714L6.42504 16.1856ZM5.63594 17.5794C5.76781 17.0519 6.04057 16.5701 6.42504 16.1856L5.01083 14.7714C4.37004 15.4122 3.91544 16.2151 3.69565 17.0943L5.63594 17.5794ZM7.81435 17.575C7.42988 17.9594 6.94814 18.2322 6.42064 18.3641L6.90571 20.3043C7.78487 20.0846 8.58777 19.63 9.22857 18.9892L7.81435 17.575ZM13.2929 7.70711L16.2929 10.7071L17.7071 9.29289L14.7071 6.29289L13.2929 7.70711ZM13 21H20V19H13V21ZM3.83831 19.0096C4.53408 18.8357 5.16429 19.4659 4.99035 20.1617L3.05007 19.6766C2.85782 20.4456 3.55438 21.1422 4.32338 20.9499L3.83831 19.0096Z" fill="white"/>
</svg>
