<svg width="24" height="24" viewBox="0 0 24 24" fill="none" xmlns="http://www.w3.org/2000/svg">
<path d="M16.9295 10.0867C16.6836 9.41898 16.3005 8.81023 15.8047 8.29982C15.3089 7.78942 14.7115 7.38871 14.0512 7.12359M21 9.47427C20.584 7.92182 19.7667 6.50622 18.6303 5.36975C17.4938 4.23327 16.0782 3.41598 14.5257 3M9.65863 8.42867C10.0691 9.9117 9.60741 11.4589 8.59584 12.4125C8.40404 12.5933 8.34223 12.8856 8.49291 13.102C8.81366 13.5624 9.17844 14.0001 9.58748 14.4094C9.9959 14.8182 10.4325 15.1828 10.8919 15.5034C11.1088 15.6548 11.402 15.592 11.5825 15.3986C12.5346 14.379 14.0862 13.9123 15.5733 14.3244C17.5778 14.88 18.706 16.822 18.0932 18.662C16.2975 24.0538 9.38422 18.7095 7.33741 16.6612C5.24112 14.5633 -0.0209407 7.68977 5.32435 5.90696C7.16294 5.29371 9.10344 6.42272 9.65863 8.42867Z" stroke="white" stroke-width="1.8" stroke-linecap="round" stroke-linejoin="round"/>
</svg>
