<svg width="49" height="48" viewBox="0 0 49 48" fill="none" xmlns="http://www.w3.org/2000/svg">
<rect x="0.300049" width="48" height="48" rx="24" fill="url(#paint0_linear_52_8005)"/>
<path d="M19.5808 31.2301L19.8997 31.419C21.239 32.2139 22.7747 32.6344 24.3407 32.6351H24.344C29.1534 32.6351 33.0674 28.7219 33.0694 23.9123C33.0703 21.5816 32.1635 19.3899 30.5161 17.7412C29.7081 16.9281 28.7469 16.2834 27.688 15.8443C26.6292 15.4052 25.4937 15.1805 24.3475 15.1832C19.5344 15.1832 15.6202 19.096 15.6185 23.9053C15.6161 25.5476 16.0786 27.157 16.9524 28.5474L17.16 28.8773L16.2784 32.0959L19.5808 31.2301ZM13.7578 34.5894L15.2473 29.1513C14.3287 27.5598 13.8454 25.7543 13.846 23.9046C13.8484 18.118 18.5575 13.4104 24.3442 13.4104C27.1523 13.4118 29.788 14.5046 31.7703 16.4883C33.7526 18.472 34.8432 21.1088 34.8422 23.913C34.8396 29.6992 30.1299 34.4076 24.344 34.4076H24.3395C22.5826 34.4069 20.8563 33.9662 19.3229 33.1301L13.7578 34.5894Z" fill="white"/>
<path fill-rule="evenodd" clip-rule="evenodd" d="M21.6125 19.4094C21.4159 18.9727 21.209 18.9638 21.0223 18.9563L20.5195 18.9501C20.3445 18.9501 20.0603 19.0158 19.82 19.2783C19.5798 19.5408 18.9019 20.1753 18.9019 21.4659C18.9019 22.7564 19.8419 24.0035 19.9729 24.1787C20.1038 24.3539 21.7875 27.0867 24.4538 28.1381C26.6694 29.0119 27.1203 28.8381 27.6014 28.7944C28.0826 28.7507 29.1534 28.1599 29.3718 27.5474C29.5903 26.9348 29.5904 26.4101 29.5249 26.3003C29.4594 26.1906 29.2845 26.1254 29.022 25.9942C28.7594 25.8629 27.47 25.2284 27.2296 25.1408C26.9892 25.0532 26.8144 25.0097 26.6393 25.2722C26.4643 25.5347 25.9622 26.1253 25.8091 26.3003C25.656 26.4754 25.5032 26.4974 25.2406 26.3663C24.9781 26.2351 24.1334 25.9581 23.1312 25.0644C22.3515 24.3692 21.8251 23.5105 21.6719 23.2481C21.5187 22.9857 21.6556 22.8436 21.7872 22.7129C21.9049 22.5953 22.0494 22.4066 22.1808 22.2535C22.3123 22.1004 22.3555 21.991 22.4428 21.8162C22.5301 21.6414 22.4866 21.4879 22.421 21.3567C22.3553 21.2256 21.8457 19.9282 21.6125 19.4094Z" fill="white"/>
<defs>
<linearGradient id="paint0_linear_52_8005" x1="47.9725" y1="0" x2="-0.027544" y2="48" gradientUnits="userSpaceOnUse">
<stop stop-color="#5EFB7A"/>
<stop offset="1" stop-color="#27D145"/>
</linearGradient>
</defs>
</svg>
